Normalized EMG Linear Envelopes
nRows=54
nColumns=17

endheader
time	        VM	        VL	        RF	       GRA	        TA	   ADDLONG	   SEMIMEM	      BFLH	        GM	        GL	       TFL	   GLUTMAX	   GLUTMED	      PIRI	    OBTINT	        QF	
1.396	  0.048421	  0.060695	  0.270456	  0.743638	  0.145122	  0.313233	  0.164375	  0.130025	  0.348360	  0.465378	  0.320187	  0.010701	  0.121057	  0.474229	  1.284963	  0.245771	
1.3965	  0.048238	  0.060375	  0.272447	  0.742789	  0.146072	  0.313137	  0.165251	  0.130378	  0.347067	  0.464580	  0.321318	  0.010716	  0.120457	  0.475659	  1.266601	  0.244951	
1.397	  0.048072	  0.060091	  0.274503	  0.741828	  0.147036	  0.313024	  0.166090	  0.130697	  0.345720	  0.463699	  0.322470	  0.010735	  0.119856	  0.477037	  1.248492	  0.244074	
1.3975	  0.047923	  0.059843	  0.276625	  0.740753	  0.148013	  0.312893	  0.166890	  0.130982	  0.344318	  0.462738	  0.323641	  0.010759	  0.119255	  0.478363	  1.230640	  0.243141	
1.398	  0.047789	  0.059629	  0.278813	  0.739563	  0.149004	  0.312744	  0.167650	  0.131231	  0.342861	  0.461695	  0.324832	  0.010785	  0.118653	  0.479634	  1.213050	  0.242155	
1.3985	  0.047672	  0.059449	  0.281067	  0.738260	  0.150009	  0.312577	  0.168368	  0.131444	  0.341348	  0.460571	  0.326043	  0.010816	  0.118053	  0.480851	  1.195727	  0.241115	
1.399	  0.047569	  0.059304	  0.283388	  0.736841	  0.151026	  0.312392	  0.169044	  0.131621	  0.339778	  0.459366	  0.327272	  0.010849	  0.117453	  0.482009	  1.178675	  0.240025	
1.3995	  0.047481	  0.059192	  0.285776	  0.735306	  0.152057	  0.312190	  0.169676	  0.131761	  0.338151	  0.458081	  0.328522	  0.010887	  0.116855	  0.483109	  1.161898	  0.238886	
1.4	  0.047407	  0.059114	  0.288230	  0.733656	  0.153101	  0.311969	  0.170263	  0.131863	  0.336467	  0.456715	  0.329791	  0.010928	  0.116259	  0.484148	  1.145400	  0.237698	
1.4005	  0.047348	  0.059068	  0.290750	  0.731891	  0.154157	  0.311730	  0.170805	  0.131927	  0.334726	  0.455268	  0.331080	  0.010972	  0.115665	  0.485125	  1.129184	  0.236464	
1.401	  0.047302	  0.059055	  0.293337	  0.730011	  0.155226	  0.311473	  0.171300	  0.131953	  0.332928	  0.453741	  0.332389	  0.011019	  0.115073	  0.486039	  1.113252	  0.235184	
1.4015	  0.047269	  0.059073	  0.295989	  0.728016	  0.156307	  0.311198	  0.171749	  0.131941	  0.331074	  0.452133	  0.333717	  0.011069	  0.114484	  0.486888	  1.097609	  0.233861	
1.402	  0.047249	  0.059124	  0.298707	  0.725909	  0.157399	  0.310906	  0.172151	  0.131890	  0.329164	  0.450444	  0.335066	  0.011123	  0.113897	  0.487671	  1.082257	  0.232495	
1.4025	  0.047241	  0.059206	  0.301491	  0.723688	  0.158503	  0.310595	  0.172506	  0.131801	  0.327199	  0.448675	  0.336435	  0.011180	  0.113314	  0.488387	  1.067197	  0.231089	
1.403	  0.047246	  0.059318	  0.304339	  0.721355	  0.159619	  0.310267	  0.172812	  0.131675	  0.325179	  0.446827	  0.337824	  0.011239	  0.112734	  0.489036	  1.052433	  0.229643	
1.4035	  0.047262	  0.059461	  0.307252	  0.718911	  0.160745	  0.309921	  0.173071	  0.131511	  0.323106	  0.444900	  0.339233	  0.011302	  0.112157	  0.489616	  1.037964	  0.228160	
1.404	  0.047289	  0.059634	  0.310229	  0.716357	  0.161882	  0.309558	  0.173281	  0.131310	  0.320981	  0.442895	  0.340663	  0.011367	  0.111584	  0.490127	  1.023794	  0.226641	
1.4045	  0.047328	  0.059836	  0.313269	  0.713694	  0.163029	  0.309178	  0.173443	  0.131073	  0.318803	  0.440813	  0.342112	  0.011435	  0.111014	  0.490567	  1.009923	  0.225088	
1.405	  0.047377	  0.060067	  0.316371	  0.710925	  0.164186	  0.308780	  0.173556	  0.130799	  0.316576	  0.438656	  0.343582	  0.011506	  0.110448	  0.490936	  0.996352	  0.223502	
1.4055	  0.047436	  0.060327	  0.319534	  0.708051	  0.165353	  0.308365	  0.173620	  0.130490	  0.314298	  0.436425	  0.345073	  0.011580	  0.109885	  0.491232	  0.983081	  0.221885	
1.406	  0.047505	  0.060616	  0.322758	  0.705076	  0.166529	  0.307932	  0.173637	  0.130146	  0.311971	  0.434121	  0.346583	  0.011655	  0.109326	  0.491456	  0.970111	  0.220239	
1.4065	  0.047584	  0.060931	  0.326042	  0.702001	  0.167713	  0.307483	  0.173605	  0.129767	  0.309597	  0.431746	  0.348114	  0.011734	  0.108771	  0.491606	  0.957442	  0.218566	
1.407	  0.047672	  0.061274	  0.329384	  0.698830	  0.168906	  0.307015	  0.173526	  0.129354	  0.307176	  0.429301	  0.349666	  0.011814	  0.108219	  0.491681	  0.945074	  0.216867	
1.4075	  0.047769	  0.061644	  0.332783	  0.695565	  0.170107	  0.306530	  0.173400	  0.128907	  0.304710	  0.426787	  0.351237	  0.011897	  0.107670	  0.491683	  0.933005	  0.215145	
1.408	  0.047875	  0.062040	  0.336238	  0.692208	  0.171316	  0.306026	  0.173228	  0.128427	  0.302199	  0.424205	  0.352829	  0.011982	  0.107125	  0.491611	  0.921235	  0.213400	
1.4085	  0.047990	  0.062461	  0.339748	  0.688763	  0.172531	  0.305504	  0.173011	  0.127914	  0.299646	  0.421559	  0.354441	  0.012070	  0.106583	  0.491465	  0.909764	  0.211636	
1.409	  0.048114	  0.062907	  0.343310	  0.685232	  0.173752	  0.304963	  0.172749	  0.127369	  0.297051	  0.418848	  0.356072	  0.012159	  0.106043	  0.491247	  0.898590	  0.209853	
1.4095	  0.048246	  0.063377	  0.346924	  0.681617	  0.174978	  0.304402	  0.172443	  0.126792	  0.294417	  0.416076	  0.357722	  0.012251	  0.105507	  0.490956	  0.887712	  0.208052	
1.41	  0.048387	  0.063872	  0.350588	  0.677922	  0.176210	  0.303821	  0.172094	  0.126184	  0.291746	  0.413244	  0.359391	  0.012344	  0.104973	  0.490594	  0.877129	  0.206237	
1.4105	  0.048536	  0.064389	  0.354299	  0.674148	  0.177445	  0.303219	  0.171703	  0.125547	  0.289040	  0.410355	  0.361078	  0.012439	  0.104441	  0.490161	  0.866839	  0.204408	
1.411	  0.048693	  0.064929	  0.358057	  0.670299	  0.178685	  0.302594	  0.171270	  0.124879	  0.286301	  0.407411	  0.362782	  0.012537	  0.103912	  0.489658	  0.856841	  0.202566	
1.4115	  0.048858	  0.065490	  0.361858	  0.666377	  0.179926	  0.301948	  0.170797	  0.124184	  0.283531	  0.404416	  0.364502	  0.012636	  0.103385	  0.489085	  0.847134	  0.200713	
1.412	  0.049031	  0.066073	  0.365702	  0.662385	  0.181170	  0.301277	  0.170283	  0.123460	  0.280733	  0.401370	  0.366238	  0.012736	  0.102860	  0.488443	  0.837717	  0.198850	
1.4125	  0.049211	  0.066676	  0.369586	  0.658326	  0.182416	  0.300583	  0.169731	  0.122710	  0.277908	  0.398277	  0.367988	  0.012839	  0.102338	  0.487732	  0.828589	  0.196979	
1.413	  0.049400	  0.067298	  0.373508	  0.654202	  0.183661	  0.299864	  0.169139	  0.121934	  0.275058	  0.395139	  0.369752	  0.012943	  0.101817	  0.486955	  0.819749	  0.195101	
1.4135	  0.049596	  0.067940	  0.377465	  0.650015	  0.184906	  0.299119	  0.168510	  0.121132	  0.272185	  0.391958	  0.371529	  0.013049	  0.101299	  0.486113	  0.811195	  0.193217	
1.414	  0.049799	  0.068599	  0.381454	  0.645769	  0.186150	  0.298348	  0.167844	  0.120307	  0.269292	  0.388736	  0.373317	  0.013156	  0.100783	  0.485206	  0.802928	  0.191328	
1.4145	  0.050009	  0.069276	  0.385474	  0.641464	  0.187392	  0.297552	  0.167141	  0.119459	  0.266380	  0.385476	  0.375115	  0.013266	  0.100269	  0.484238	  0.794945	  0.189436	
1.415	  0.050227	  0.069970	  0.389521	  0.637103	  0.188630	  0.296729	  0.166404	  0.118588	  0.263451	  0.382180	  0.376923	  0.013376	  0.099758	  0.483209	  0.787246	  0.187540	
1.4155	  0.050452	  0.070680	  0.393593	  0.632688	  0.189866	  0.295879	  0.165632	  0.117696	  0.260506	  0.378848	  0.378739	  0.013488	  0.099249	  0.482121	  0.779828	  0.185643	
1.416	  0.050684	  0.071405	  0.397687	  0.628221	  0.191098	  0.295004	  0.164827	  0.116784	  0.257548	  0.375484	  0.380563	  0.013602	  0.098742	  0.480978	  0.772691	  0.183746	
1.4165	  0.050922	  0.072145	  0.401801	  0.623703	  0.192324	  0.294101	  0.163989	  0.115853	  0.254578	  0.372089	  0.382394	  0.013717	  0.098238	  0.479781	  0.765832	  0.181848	
1.417	  0.051168	  0.072898	  0.405930	  0.619136	  0.193546	  0.293172	  0.163121	  0.114903	  0.251597	  0.368665	  0.384231	  0.013834	  0.097736	  0.478533	  0.759250	  0.179952	
1.4175	  0.051420	  0.073664	  0.410073	  0.614523	  0.194762	  0.292216	  0.162223	  0.113936	  0.248607	  0.365214	  0.386073	  0.013952	  0.097236	  0.477235	  0.752940	  0.178058	
1.418	  0.051680	  0.074442	  0.414227	  0.609866	  0.195971	  0.291233	  0.161295	  0.112952	  0.245609	  0.361738	  0.387919	  0.014071	  0.096739	  0.475891	  0.746902	  0.176167	
1.4185	  0.051946	  0.075231	  0.418389	  0.605166	  0.197173	  0.290222	  0.160340	  0.111953	  0.242606	  0.358239	  0.389769	  0.014192	  0.096244	  0.474501	  0.741132	  0.174280	
1.419	  0.052219	  0.076031	  0.422556	  0.600426	  0.198367	  0.289185	  0.159359	  0.110938	  0.239597	  0.354717	  0.391622	  0.014314	  0.095751	  0.473068	  0.735627	  0.172397	
1.4195	  0.052498	  0.076841	  0.426725	  0.595647	  0.199552	  0.288120	  0.158351	  0.109909	  0.236585	  0.351176	  0.393478	  0.014437	  0.095260	  0.471595	  0.730384	  0.170520	
1.42	  0.052785	  0.077660	  0.430893	  0.590832	  0.200728	  0.287030	  0.157319	  0.108868	  0.233571	  0.347617	  0.395335	  0.014561	  0.094772	  0.470082	  0.725399	  0.168648	
1.4205	  0.053077	  0.078487	  0.435059	  0.585982	  0.201894	  0.285912	  0.156264	  0.107813	  0.230557	  0.344042	  0.397193	  0.014687	  0.094285	  0.468533	  0.720670	  0.166784	
1.421	  0.053376	  0.079321	  0.439218	  0.581100	  0.203050	  0.284769	  0.155186	  0.106748	  0.227543	  0.340452	  0.399051	  0.014813	  0.093801	  0.466949	  0.716193	  0.164926	
1.4215	  0.053682	  0.080162	  0.443367	  0.576188	  0.204195	  0.283600	  0.154087	  0.105672	  0.224531	  0.336849	  0.400908	  0.014941	  0.093318	  0.465332	  0.711965	  0.163077	
1.422	  0.053994	  0.081009	  0.447504	  0.571249	  0.205329	  0.282406	  0.152967	  0.104586	  0.221522	  0.333235	  0.402763	  0.015070	  0.092838	  0.463684	  0.707982	  0.161236	
1.4225	  0.054312	  0.081862	  0.451625	  0.566284	  0.206451	  0.281186	  0.151827	  0.103492	  0.218518	  0.329611	  0.404614	  0.015199	  0.092358	  0.462008	  0.704242	  0.159404	
